<?xml version="1.0" encoding="utf-8"?><svg fill="none" viewBox="0 0 500 500" xmlns="http://www.w3.org/2000/svg"><defs /><g transform="matrix(0.49,0,0,0.49,94.79,48.12)" id="Layer 3 Outlines"><g id="Group 25" transform="matrix(1,0,0,1,283.723,539.529)"><path fill="#34ba77" fill-opacity="1" d="M5.549,47.71L4.429,40.058C4.358,39.571,-2.867,-9.103,-16.949,-46.657L-14.14,-47.71C-3.294,-18.786,3.508,16.629,6.147,31.954C13.852,-5.111,13.949,-46.739,13.949,-47.184L16.949,-47.184C16.949,-46.705,16.84,1.132,7.371,40.194L5.549,47.71Z" /></g><g><g transform="translate(296.874,247.58)"><animateTransform repeatCount="indefinite" type="translate" attributeName="transform" dur="3.4s" begin="1s" calcMode="spline" values="296.874 247.58; 321.363 247.58; 290.751 247.58; 296.874 247.58" keyTimes="0; 0.294; 0.588; 1" keySplines="0.333 0 0.667 1; 0.461 0 0.667 1; 0.333 0 0.667 1" fill="freeze" /><g transform="rotate(0)"><animateTransform repeatCount="indefinite" type="rotate" attributeName="transform" dur="4.4s" begin="0s" calcMode="spline" values="0; 17; 5; 16; 0" keyTimes="0; 0.227; 0.455; 0.682; 1" keySplines="0.61 0 0.697 1; 0.333 0 0.667 1; 0.461 0 0.667 1; 0.333 0 0.667 1" fill="freeze" /><g id="Group 30" transform="translate(-321.363,-247.58)"><g id="Group 37" transform="matrix(1,0,0,1,480.82,198.787)"><path fill="#10564f" fill-opacity="1" d="M-151.249,18.18C-124.427,-46.791,-94.624,-61.691,-69.59,-65.863C-33.23,-83.745,15.051,-80.765,35.912,-77.786C56.774,-74.805,95.22,-53.942,105.949,-35.167C116.678,-16.39,130.983,-6.555,141.713,28.314C152.441,63.183,150.653,83.745,150.653,83.745C123.831,80.169,118.467,64.077,105.949,56.924C93.432,49.772,79.127,41.725,64.821,44.408C50.516,47.089,30.846,31.89,12.07,47.089C-6.705,62.288,-28.164,64.971,-52.304,56.924C-76.444,48.877,-123.831,81.064,-144.395,66.758C-152.441,32.784,-151.249,18.18,-151.249,18.18Z" /></g><g id="Group 36" transform="matrix(1,0,0,1,508.809,187.461)"><path fill="#34ba77" fill-opacity="1" d="M95.1,56.597C77.716,30.349,51.446,-9.318,6.188,-26.914L-1.355,-29.851C-44.447,-46.647,-62.299,-53.61,-97.554,-53.038L-97.602,-56.038C-61.741,-56.597,-43.747,-49.592,-0.266,-32.646L7.277,-29.71C53.421,-11.768,80.008,28.375,97.602,54.941L95.1,56.597Z" /></g><g id="Group 35" transform="matrix(1,0,0,1,490.157,130.312)"><path fill="#34ba77" fill-opacity="1" d="M44.778,6.615C36.918,5.726,29.763,4.515,22.846,3.344C1.074,-0.341,-17.73,-3.522,-44.039,6.583L-45.115,3.781C-18.037,-6.616,1.14,-3.37,23.346,0.387C30.224,1.552,37.337,2.754,45.115,3.633L44.778,6.615Z" /></g><g id="Group 34" transform="matrix(1,0,0,1,566.971,176.576)"><path fill="#34ba77" fill-opacity="1" d="M25.648,6.23C14.535,-0.231,5.137,-0.474,-4.813,-0.733C-11.756,-0.914,-18.937,-1.099,-27.156,-3.335L-26.369,-6.23C-18.498,-4.089,-11.501,-3.908,-4.735,-3.731C5.609,-3.463,15.379,-3.209,27.156,3.636L25.648,6.23Z" /></g><g id="Group 33" transform="matrix(1,0,0,1,599.622,222.502)"><path fill="#34ba77" fill-opacity="1" d="M12.701,8.139C-0.925,-0.047,-14.114,-5.298,-14.246,-5.35L-13.143,-8.139C-13.009,-8.087,0.411,-2.744,14.246,5.569L12.701,8.139Z" /></g><g id="Group 32" transform="matrix(1,0,0,1,534.532,191.293)"><path fill="#34ba77" fill-opacity="1" d="M17.763,33.195C8.699,22.397,4.646,12.464,0.727,2.857C-3.865,-8.398,-8.202,-19.028,-20.06,-31.091L-17.922,-33.195C-5.647,-20.708,-0.995,-9.305,3.504,1.723C7.336,11.116,11.299,20.829,20.06,31.266L17.763,33.195Z" /></g><g id="Group 31" transform="matrix(1,0,0,1,488.971,178.582)"><path fill="#34ba77" fill-opacity="1" d="M13.899,36.237C-2.453,16.678,-4.985,1.626,-7.019,-10.47C-8.514,-19.359,-9.804,-27.037,-16.199,-34.246L-13.955,-36.237C-6.989,-28.384,-5.632,-20.313,-4.061,-10.967C-1.984,1.383,0.37,15.381,16.199,34.315L13.899,36.237Z" /></g><g id="Group 30" transform="matrix(1,0,0,1,381.62,199.244)"><path fill="#34ba77" fill-opacity="1" d="M20.399,35.784C9.923,-10.918,-22.996,-33.062,-23.327,-33.279L-21.676,-35.784C-21.334,-35.56,12.588,-12.743,23.327,35.128L20.399,35.784Z" /></g></g></g></g></g><g id="Group 37" transform="matrix(1,0,0,1,0,0)"><g id="Group 24" transform="matrix(1,0,0,1,309.669,690.236)"><path fill="#79aed4" fill-opacity="1" d="M146.755,133.517L-146.756,133.517C-157.364,133.517,-165.607,124.278,-164.402,113.738L-136.134,-133.516L136.133,-133.516L164.401,113.738C165.607,124.278,157.364,133.517,146.755,133.517Z" /></g><g id="Group 18" transform="matrix(1,0,0,1,307.192,757.16)"><path fill="#ffffff" fill-opacity="1" d="M158.477,-26.675L103.859,22.225L31.979,-38.93L-34.199,22.132L-100.288,-35.277L-104.39,-31.726C-120.377,-17.89,-143.471,1.878,-158.182,14.071L-160.219,31.894C-154.689,27.642,-145.681,20.044,-130.044,6.761C-118.196,-3.307,-106.347,-13.503,-100.307,-18.713L-33.948,38.93L32.314,-22.209L104.068,38.838L160.219,-11.434L158.477,-26.675Z" /></g><g id="Group 17" transform="matrix(1,0,0,1,307.756,696.697)"><path fill="#ffffff" fill-opacity="1" d="M-154.75,39.593C-152.769,38.044,-150.579,36.253,-148.083,34.208C-142.214,29.403,-134.193,22.678,-124.241,14.224C-115.749,7.01,-107.261,-0.27,-100.899,-5.741L-34.314,52.099L32.016,-9.102L103.668,51.859L154.75,6.126L150.271,-33.063L103.131,9.14L31.149,-52.099L-34.96,8.902L-100.84,-48.325L-111.391,-39.193C-124.248,-28.067,-137.884,-16.387,-149.472,-6.583L-154.75,39.593Z" /></g></g><g id="Group 36" transform="matrix(1,0,0,1,0,0)"><g id="Group 31" transform="matrix(1,0,0,1,0,0)"><g id="Group 29" transform="matrix(1,0,0,1,170.822,41.668)"><path fill="#10564f" fill-opacity="1" d="M77.511,15.811C68.804,-23.26,58.15,-23.009,34.452,-23.334C10.755,-23.659,2.258,-41.417,-23.235,-28.146C-48.727,-14.876,-69.267,-21.9,-78.838,-4.745C-41.738,-8.345,-46.608,14.377,-19.607,12.334C7.394,10.291,20.855,41.417,37.754,40.844C54.654,40.272,78.838,21.764,77.511,15.811Z" /></g><g id="Group 28" transform="matrix(1,0,0,1,353.711,62.627)"><path fill="#0b7056" fill-opacity="1" d="M-97.455,10.69C-83.149,-31.63,-53.347,-42.955,-33.677,-41.166C9.239,-51.895,35.466,-30.438,39.042,-29.842C85.534,-9.577,89.111,22.015,93.283,28.572C97.455,35.128,92.091,36.32,80.17,37.512C68.249,38.705,64.673,36.916,44.406,29.168C24.141,21.419,8.257,26.783,-5.558,36.32C-19.371,45.857,-56.923,51.895,-73.612,34.273C-90.302,16.65,-97.455,10.69,-97.455,10.69Z" /></g><g id="Group 27" transform="matrix(1,0,0,1,278.803,98.406)"><path fill="#34ba77" fill-opacity="1" d="M-19.617,-26.483C-20.196,-25.742,-20.769,-24.981,-21.334,-24.207L-21.438,-24.078C-27.523,-17.395,-30.708,-2.143,-29.363,13.875C-28.444,24.829,-24.567,45.421,-9.087,63.141C-6.682,51.303,1.003,4.618,-19.617,-26.483ZM-7.452,69.333L-9.334,67.333C-38.971,35.832,-36.377,-11.996,-23.713,-26.036C-22.966,-27.061,-22.198,-28.066,-21.41,-29.049C-24.348,-33.041,-27.8,-36.737,-31.839,-40.018L-32.03,-40.205C-32.177,-40.375,-46.929,-57.133,-75.148,-57.133C-85.762,-57.133,-93.141,-59.543,-99.651,-61.669C-105.086,-63.444,-109.779,-64.981,-115.039,-64.552C-118.792,-64.249,-122.656,-64.546,-126.749,-64.861C-135.704,-65.55,-144.968,-66.261,-153.426,-60.44L-155.126,-62.913C-145.796,-69.334,-135.556,-68.547,-126.519,-67.852C-122.547,-67.547,-118.791,-67.257,-115.281,-67.543C-109.412,-68.015,-104.46,-66.397,-98.719,-64.522C-92.422,-62.465,-85.284,-60.134,-75.148,-60.134C-46.36,-60.134,-31.282,-43.891,-29.846,-42.265C-25.982,-39.112,-22.513,-35.485,-19.447,-31.411C-8.688,-43.879,5.382,-52.684,21.617,-57.043C36.03,-60.913,51.828,-61.175,64.959,-57.763C71.258,-56.126,77.672,-55.117,83.873,-54.14C99.372,-51.698,115.397,-49.172,130.98,-36.711C138.705,-30.534,145.396,-25.92,150.771,-22.211C152.305,-21.152,153.755,-20.151,155.126,-19.187L153.4,-16.733C152.036,-17.692,150.593,-18.688,149.066,-19.742C143.653,-23.478,136.914,-28.126,129.107,-34.37C114.145,-46.333,99.214,-48.685,83.406,-51.176C77.134,-52.165,70.648,-53.186,64.206,-54.859C46.674,-59.416,8.101,-59.396,-17.65,-28.905C-8.281,-15.183,-3.148,3.127,-2.644,25.058C-2.125,47.692,-6.74,66.481,-6.787,66.668L-7.452,69.333Z" /></g></g><g id="Group 33" transform="matrix(1,0,0,1,0,0)"><g id="Group 7" transform="matrix(1,0,0,1,175.33,27.655)"><path fill="#34ba77" fill-opacity="1" d="M9.599,10.578C9.492,10.439,-1.297,-3.36,-11.97,-7.81L-10.816,-10.578C0.594,-5.82,11.511,8.148,11.97,8.741L9.599,10.578Z" /></g><g id="Group 6" transform="matrix(1,0,0,1,214.739,53.22)"><path fill="#34ba77" fill-opacity="1" d="M-16.541,8.924L-17.115,5.981C0.623,2.52,15.109,-8.81,15.254,-8.924L17.115,-6.571C16.504,-6.088,1.934,5.32,-16.541,8.924Z" /></g><g id="Group 5" transform="matrix(1,0,0,1,145.478,36.273)"><path fill="#34ba77" fill-opacity="1" d="M-4.03,6.07L-6.439,4.282C-6.198,3.957,-0.45,-3.725,5.307,-6.07L6.439,-3.292C1.463,-1.265,-3.975,5.997,-4.03,6.07Z" /></g><g id="Group 4" transform="matrix(1,0,0,1,403.902,53.75)"><path fill="#34ba77" fill-opacity="1" d="M11.72,2.164C-1.788,2.164,-11.623,0.822,-11.72,0.808L-11.307,-2.164C-11.212,-2.15,-1.567,-0.836,11.72,-0.836L11.72,2.164Z" /></g><g id="Group 3" transform="matrix(1,0,0,1,372.137,59.44)"><path fill="#34ba77" fill-opacity="1" d="M13.076,15.296C4.902,-1.624,-15.57,-12.532,-15.776,-12.641L-14.381,-15.296C-13.505,-14.837,7.166,-3.833,15.776,13.991L13.076,15.296Z" /></g><g id="Group 2" transform="matrix(1,0,0,1,324.743,35.267)"><path fill="#34ba77" fill-opacity="1" d="M-17.914,7.644L-19.186,4.927C-19.032,4.854,-3.436,-2.39,18.486,-7.644L19.186,-4.727C-2.444,0.457,-17.762,7.573,-17.914,7.644Z" /></g><g id="Group 1" transform="matrix(1,0,0,1,308.138,64.433)"><path fill="#34ba77" fill-opacity="1" d="M28.166,14.091C-15.347,3.958,-28.314,-11.547,-28.846,-12.202L-26.514,-14.091C-26.392,-13.941,-13.493,1.31,28.846,11.169L28.166,14.091Z" /></g></g></g><g><g transform="translate(228.637,134.053)"><g transform="rotate(0)"><animateTransform repeatCount="indefinite" type="rotate" attributeName="transform" dur="4.7s" begin="0s" calcMode="spline" values="0; 9; -15; 9; 0" keyTimes="0; 0.181; 0.369; 0.585; 1" keySplines="0.659 0 0.702 1; 0.333 0 0.667 1; 0.459 0 0.667 1; 0.333 0 0.667 1" fill="freeze" /><g id="Group 35" transform="translate(-228.637,-134.053)"><g id="Group 32" transform="matrix(1,0,0,1,0,0)"><g id="Group 26" transform="matrix(1,0,0,1,171.914,334.838)"><path fill="#0b7056" fill-opacity="1" d="M59.01,-204.299C-16.094,-231.121,-50.068,-223.074,-94.773,-190.888C-139.477,-158.7,-145.735,-111.314,-143.053,-87.174C-140.371,-63.033,-135.9,-59.457,-153.782,-38.893C-171.664,-18.329,-171.664,20.116,-161.829,51.41C-151.994,82.702,-149.312,84.491,-152.888,118.466C-156.465,152.441,-151.1,178.37,-127.853,195.357C-104.607,212.345,-100.137,231.121,-100.137,231.121C-79.573,203.404,-86.726,183.734,-64.374,167.64C-42.021,151.547,-13.411,155.123,17.882,118.466C49.175,81.808,50.963,53.198,54.539,29.951C58.115,6.705,99.243,-3.13,128.748,-15.647C158.253,-28.164,171.664,-61.245,171.664,-93.432C171.664,-125.619,137.69,-167.641,115.337,-181.946C92.985,-196.252,78.361,-197.889,59.01,-204.299Z" /></g><g id="Group 32" transform="matrix(1,0,0,1,0,0)"><g id="Group 23" transform="matrix(1,0,0,1,104.207,202.746)"><path fill="#34ba77" fill-opacity="1" d="M-71.334,31.008L-73.994,29.622C-46.48,-23.151,7.724,-25.831,43.591,-27.603C55.774,-28.206,66.296,-28.725,73.031,-31.008L73.994,-28.166C66.862,-25.75,56.146,-25.22,43.739,-24.606C6.452,-22.763,-44.614,-20.24,-71.334,31.008Z" /></g><g id="Group 22" transform="matrix(1,0,0,1,247.977,219.954)"><path fill="#34ba77" fill-opacity="1" d="M31.49,88.736C2.849,63.483,-16.219,31.244,-23.654,-4.497C-29.529,-32.743,-27.983,-63.448,-19.409,-88.736L-16.568,-87.773C-33.474,-37.904,-24.557,35.319,33.474,86.486L31.49,88.736Z" /></g><g id="Group 21" transform="matrix(1,0,0,1,77.726,320.522)"><path fill="#34ba77" fill-opacity="1" d="M-62.97,32.775L-65.16,30.725C-43.103,7.163,-12.706,-1.847,14.111,-9.796C35.33,-16.086,53.656,-21.516,62.836,-32.775L65.16,-30.879C55.396,-18.903,36.659,-13.349,14.964,-6.919C-11.489,0.922,-41.468,9.807,-62.97,32.775Z" /></g><g id="Group 20" transform="matrix(1,0,0,1,139.776,396.615)"><path fill="#34ba77" fill-opacity="1" d="M27.574,60.051C6.159,41.287,-10.063,18.749,-19.337,-5.126C-27.035,-24.947,-29.551,-44.967,-26.238,-60.051L-23.308,-59.406C-26.497,-44.885,-24.03,-25.497,-16.54,-6.213C-7.441,17.215,8.498,39.349,29.551,57.795L27.574,60.051Z" /></g><g id="Group 19" transform="matrix(1,0,0,1,56.764,463.686)"><path fill="#34ba77" fill-opacity="1" d="M-21.512,32.688L-24.458,32.122C-15.926,-12.211,22.697,-32.488,23.087,-32.688L24.458,-30.019C24.082,-29.826,-13.262,-10.174,-21.512,32.688Z" /></g></g></g><g id="Group 16" transform="matrix(1,0,0,1,152.784,326.557)"><path fill="#34ba77" fill-opacity="1" d="M-72.926,197.419L-75.926,197.365C-75.784,189.573,-76.108,181.879,-76.45,173.734C-77.493,148.943,-78.675,120.845,-67.714,74.988C-60.147,43.329,-46.102,20.792,-33.71,0.908C-21.718,-18.334,-10.391,-36.51,-6.49,-59.916C-6.215,-61.57,-5.934,-63.294,-5.643,-65.079C-2.466,-84.561,1.885,-111.244,13.641,-136.291C27.573,-165.973,49.094,-186.54,77.604,-197.419L78.675,-194.616C14.528,-170.139,3.755,-104.07,-2.682,-64.596C-2.974,-62.808,-3.255,-61.08,-3.531,-59.423C-7.53,-35.429,-19.01,-17.008,-31.164,2.496C-44.034,23.147,-57.342,44.501,-64.796,75.687C-75.66,121.136,-74.488,149.013,-73.453,173.608C-73.109,181.8,-72.783,189.536,-72.926,197.419Z" /></g></g></g></g></g><g><g transform="translate(321.527,294.05)"><g transform="rotate(0)"><animateTransform repeatCount="indefinite" type="rotate" attributeName="transform" dur="4.9s" begin="0s" calcMode="spline" values="0; 12; -5; 2; 12; 0" keyTimes="0; 0.204; 0.405; 0.51; 0.827; 1" keySplines="0.61 0 0.697 1; 0.333 0 0.667 1; 0.581 0 0.667 1; 0.333 0 0.667 1; 0.333 0 0.667 1" fill="freeze" /><g id="Group 34" transform="translate(-321.527,-294.05)"><g id="Group 15" transform="matrix(1,0,0,1,389.773,493.336)"><path fill="#10564f" fill-opacity="1" d="M-115.635,-184.577C-199.083,-141.66,-194.315,-70.134,-172.857,-27.218C-151.399,15.698,-100.138,9.737,-85.832,21.659C-71.527,33.58,-84.64,82.457,-72.719,101.53C-60.798,120.605,-8.345,145.639,27.419,150.407C63.182,155.176,92.985,200.476,79.872,233.855C163.319,204.052,188.354,175.442,178.817,125.373C169.28,75.304,147.822,65.767,172.856,30.004C197.891,-5.76,199.083,-41.523,176.432,-74.902C153.783,-108.281,160.935,-126.163,168.088,-160.734C175.241,-195.306,105.699,-233.855,44.505,-227.693C-16.69,-221.532,-73.911,-197.689,-79.871,-194.113C-94.177,-188.153,-115.635,-184.577,-115.635,-184.577Z" /></g><g id="Group 14" transform="matrix(1,0,0,1,416.384,498.484)"><path fill="#34ba77" fill-opacity="1" d="M76.683,204.438L74.05,203.001C95.686,163.35,84.829,105.575,69.055,80.796C59.747,66.175,57.641,53.176,55.605,40.604C53.087,25.063,50.709,10.383,35.165,-6.618C5.888,-38.639,-0.989,-51.545,4.085,-95.422C6.788,-118.798,1.659,-136.24,-12.549,-151.975C-28.296,-169.415,-55.722,-185.194,-98.865,-201.634L-97.796,-204.438C-54.194,-187.821,-26.399,-171.791,-10.323,-153.986C4.514,-137.553,9.876,-119.385,7.066,-95.078C2.1,-52.141,8.376,-40.364,37.38,-8.641C53.528,9.02,56.089,24.833,58.566,40.125C60.554,52.396,62.61,65.085,71.586,79.185C87.749,104.574,98.865,163.786,76.683,204.438Z" /></g><g id="Group 13" transform="matrix(1,0,0,1,382.286,495.936)"><path fill="#34ba77" fill-opacity="1" d="M-37.78,79.247L-39.635,76.89C-5.161,49.739,4.223,14.871,13.297,-18.849C19.24,-40.927,24.852,-61.78,37.184,-79.247L39.635,-77.517C27.61,-60.486,22.065,-39.883,16.195,-18.069C6.992,16.123,-2.523,51.48,-37.78,79.247Z" /></g><g id="Group 12" transform="matrix(1,0,0,1,470.423,340.454)"><path fill="#34ba77" fill-opacity="1" d="M76.101,13.014C45.828,-9.917,12.127,-6.601,-20.464,-3.399C-41.216,-1.359,-60.819,0.569,-77.912,-4.714L-77.025,-7.581C-60.514,-2.478,-41.204,-4.376,-20.757,-6.384C10.864,-9.492,46.703,-13.014,77.912,10.623L76.101,13.014Z" /></g><g id="Group 11" transform="matrix(1,0,0,1,296.806,383.29)"><path fill="#34ba77" fill-opacity="1" d="M-41.164,83.715L-44.107,83.134C-37.911,51.758,-19.538,28.979,-1.771,6.95C20.135,-20.21,40.825,-45.863,31.251,-82.965L34.155,-83.715C44.107,-45.154,22.956,-18.931,0.565,8.832C-16.975,30.578,-35.111,53.065,-41.164,83.715Z" /></g><g id="Group 10" transform="matrix(1,0,0,1,490.092,489.848)"><path fill="#34ba77" fill-opacity="1" d="M62.372,34.954C41.324,5.221,11.775,-2.357,-14.295,-9.041C-34.238,-14.155,-53.074,-18.986,-64.821,-33.028L-62.521,-34.954C-51.394,-21.652,-33.857,-17.154,-13.55,-11.947C13.02,-5.134,43.137,2.589,64.821,33.223L62.372,34.954Z" /></g><g id="Group 9" transform="matrix(1,0,0,1,444.888,563.92)"><path fill="#34ba77" fill-opacity="1" d="M-12.052,73.346L-14.731,71.994C-12.387,67.351,-10.181,63.154,-8.049,59.096C3.861,36.428,11.728,21.452,11.633,-12.711C11.543,-44.965,6.348,-72.509,6.296,-72.784L9.243,-73.347C9.296,-73.07,14.542,-45.265,14.633,-12.718C14.73,22.189,6.725,37.427,-5.393,60.492C-7.52,64.539,-9.719,68.724,-12.052,73.346Z" /></g><g id="Group 8" transform="matrix(1,0,0,1,516.243,635.425)"><path fill="#34ba77" fill-opacity="1" d="M14.904,21.538C11.017,16.167,6.339,11.237,1.814,6.469C-6.344,-2.13,-14.049,-10.252,-17.333,-20.634L-14.475,-21.538C-11.399,-11.816,-3.923,-3.937,3.991,4.404C8.583,9.243,13.33,14.247,17.333,19.78L14.904,21.538Z" /></g></g></g></g></g></g></svg>