<?xml version="1.0" encoding="utf-8"?><svg fill="none" viewBox="0 0 1000 1000" xmlns="http://www.w3.org/2000/svg"><defs /><g id="stalk"><g transform="translate(766.662,1499.12)"><g transform="rotate(13.769)"><g transform="scale(0.7,0.7) translate(-228.398,-658.264)"><g id="Group 1" transform="matrix(1,0,0,1,228.398,658.263)" stroke-linejoin="miter" stroke-linecap="butt" stroke-width="39" stroke-opacity="1" stroke="#d1fc54"><path stroke-linejoin="miter" stroke-linecap="butt" stroke-width="39" stroke-opacity="1" stroke="#1b6958" d="M-130.898,-560.764C-130.898,-560.764,130.898,-265.798,130.898,560.764" /></g></g></g></g></g><g visibility="hidden" id="leaf 2"><g transform="translate(756.44,585.317)"><g transform="rotate(0)"><g transform="scale(0.322,0.322)"><g transform="translate(-508,-498.5)"><g id="Group 1" transform="matrix(1,0,0,1,507.799,498.09)"><path fill="#1b6958" fill-opacity="1" d="M61.833,-85.431L34.165,-55.994L6.223,-26.796C-3.13,-17.098,-12.079,-7.047,-21.214,2.842C-30.35,12.73,-40.029,22.144,-50.306,31.035C-60.571,39.935,-71.179,48.538,-82.185,56.792C-93.239,65.004,-104.563,72.98,-116.944,80.032L-118.783,78.425C-111.709,66.736,-103.576,55.97,-95.175,45.441C-86.725,34.953,-77.876,24.813,-68.687,14.972C-59.508,5.122,-49.731,-4.206,-39.411,-13.06C-29.09,-21.912,-18.584,-30.603,-8.481,-39.646L21.943,-66.674L52.643,-93.461C73.225,-111.219,93.777,-129.001,114.686,-146.474L116.524,-144.869C98.521,-124.858,80.162,-105.157,61.833,-85.431ZM35.052,-228.562C37.169,-232.242,50.456,-229.084,64.729,-221.507C79.002,-213.93,88.857,-204.806,86.74,-201.125C84.624,-197.444,71.337,-200.602,57.064,-208.179C42.791,-215.755,32.936,-224.881,35.052,-228.562ZM59.928,-137.877C44.448,-139.454,30.408,-157.593,30.408,-157.593C26.117,-162.062,26.35,-165.351,27.659,-167.527C28.958,-169.686,31.658,-170.783,34.451,-170.534C42.936,-169.78,66.666,-166.925,76.389,-158.026C88.333,-147.096,75.409,-136.301,59.928,-137.877ZM203.422,19.375C193.426,-3.625,181.25,-25.893,167.503,-47.439C155.269,-66.615,149.129,-85.197,211.99,-37.263C309.323,36.956,306.673,247.466,320.562,233.641C334.772,219.496,410.669,143.695,429.881,110.336C444.284,85.329,410.514,23.628,400.956,2.862C398.711,-2.013,395.389,-6.459,391.195,-10.197C371.237,-27.979,308.147,-84.09,276.174,-111.353C237.88,-144.007,292.424,-144.765,292.424,-144.765C292.424,-144.765,380.382,-137.167,388.708,-74.15C397.246,-9.533,417.07,0.719,417.07,0.719C419.546,-10.06,437.574,-18.151,472.562,-97.932C507.55,-177.715,413.328,-238.025,394.352,-251.615C375.375,-265.204,315.753,-308.703,315.753,-308.703C315.753,-308.703,246.635,-307.475,219.112,-234.681C191.588,-161.886,177.419,-178.625,177.419,-178.625C160.596,-213.852,189.506,-242.479,207.158,-273.223C224.811,-303.966,209.114,-335.08,197.467,-359.205C184.507,-386.052,186.59,-389.354,137.81,-389.245C105.096,-389.173,89.503,-413.365,84.456,-421.606C82.491,-424.814,80.085,-427.809,77.378,-430.558C11.103,-497.839,-51.839,-455.606,-51.839,-455.606C-27.893,-464.727,47.976,-391.14,47.976,-391.14C47.976,-391.14,105.551,-320.193,33.823,-350.52C-37.905,-380.848,-4.721,-436.723,-107.109,-443.363C-209.496,-450.002,-242.771,-346.052,-242.771,-346.052C-183.251,-372.726,-46.869,-293.363,-32.46,-283.638C-18.051,-273.914,-16.312,-262.566,-22.653,-258.549C-28.995,-254.532,-160.5,-308.531,-160.5,-308.531C-219.66,-285.997,-212.55,-323.935,-296.345,-300.025C-380.14,-276.115,-373.298,-173.032,-373.298,-173.032C-338.791,-184.574,-167.371,-210.634,-150.48,-210.662C-133.589,-210.69,-99.149,-186.977,-59.044,-181.435C-51.892,-180.447,-46.442,-179.117,-42.314,-177.598C-31.472,-173.605,-32.007,-159.486,-43.059,-157.746C-72.757,-153.074,-157.807,-142.472,-216.726,-163.011C-289.167,-188.263,-315.942,-171.659,-315.942,-171.659C-389.231,-121.326,-425.186,-182.031,-434.641,-112.836C-442.011,-58.901,-456.714,22.076,-456.714,22.076C-444.379,11.773,-332.04,-33.418,-315.125,-46.267C-298.209,-59.115,-190.804,-100.825,-105.691,-77.197C-45.668,-60.534,-86.279,-40.98,-115.438,-30.9C-126.606,-27.038,-138.578,-25.099,-150.815,-24.955C-173.681,-24.689,-227.559,-17.434,-319.142,31.328C-445.95,98.844,-492.661,44.19,-499.612,107.295C-507.549,179.351,-504.464,218.691,-504.464,218.691C-481.405,173.051,-390.604,178.352,-349.12,151.935C-344.309,148.006,-339.061,144,-333.354,139.962C-326.661,133.831,-320.703,126.682,-315.788,118.123C-293.336,79.02,-256.98,62.47,-233.484,55.602C-218.816,51.314,-202.89,50.407,-187.235,53.505C-169.159,57.082,-156.282,65.376,-216.139,84.172C-267.86,100.413,-305.933,120.563,-333.354,139.962C-338.252,144.45,-343.549,148.388,-349.12,151.935C-363.993,164.087,-374.714,175.524,-382.07,185.004C-403.235,212.281,-446.559,234.387,-476.871,260.345C-507.183,286.302,-481.945,330.317,-481.945,330.317C-424.611,240.463,-343.67,211.176,-303.979,195.947C-296.411,192.517,-289.085,189.982,-282.14,188.576C-282.14,188.576,-290.406,190.739,-303.979,195.947C-374.66,227.981,-480.544,338.776,-472.479,357.154C-462.206,380.57,-452.287,398.108,-452.287,398.108C-422.712,390.047,-390.408,484.293,-390.408,484.293C-390.408,484.293,-339.243,425.706,-341.683,413.023C-344.122,400.34,-333.854,366.805,-332.085,362.129C-309.283,301.82,-237.507,213.965,-237.507,213.965C-237.507,213.965,-195.18,165.862,-200.881,203.263C-206.582,240.664,-352.048,497.839,-352.048,497.839C-243.401,491.68,-219.02,490.405,-219.02,490.405C-219.02,490.405,-168.945,434.502,-114.542,322.505C-60.139,210.506,-90.915,110.136,-76.805,91.951C-62.695,73.766,-55.348,95.787,-55.348,95.787C-16.175,221.784,-159.53,479.756,-159.53,479.756C-83.509,464.624,-27.563,439.701,32.731,411.33C80.341,388.927,72.091,253.019,72.841,228.714C73.591,204.408,66.132,55.123,58.814,17.076C51.497,-20.971,80.339,-14.343,90.529,-6.214C100.718,1.915,117.066,102.176,117.066,102.176C117.066,102.176,108.42,424.032,124.195,423.155C151.776,421.624,248.834,406.601,247.441,406.718C247.441,406.718,294.719,361.666,281.32,261.833C270.741,183.007,229.075,78.397,203.422,19.375Z" /></g></g></g></g></g></g><g visibility="hidden" id="leaf 4"><g transform="translate(854.495,46.946)"><g transform="rotate(0)"><g transform="scale(0.7,0.7)"><g transform="translate(-988.079,-29.398)"><g id="Group 1" transform="matrix(1,0,0,1,507.799,498.09)"><path fill="#1b6958" fill-opacity="1" d="M61.833,-85.431L34.165,-55.994L6.223,-26.796C-3.13,-17.098,-12.079,-7.047,-21.214,2.842C-30.35,12.73,-40.029,22.144,-50.306,31.035C-60.571,39.935,-71.179,48.538,-82.185,56.792C-93.239,65.004,-104.563,72.98,-116.944,80.032L-118.783,78.425C-111.709,66.736,-103.576,55.97,-95.175,45.441C-86.725,34.953,-77.876,24.813,-68.687,14.972C-59.508,5.122,-49.731,-4.206,-39.411,-13.06C-29.09,-21.912,-18.584,-30.603,-8.481,-39.646L21.943,-66.674L52.643,-93.461C73.225,-111.219,93.777,-129.001,114.686,-146.474L116.524,-144.869C98.521,-124.858,80.162,-105.157,61.833,-85.431ZM35.052,-228.562C37.169,-232.242,50.456,-229.084,64.729,-221.507C79.002,-213.93,88.857,-204.806,86.74,-201.125C84.624,-197.444,71.337,-200.602,57.064,-208.179C42.791,-215.755,32.936,-224.881,35.052,-228.562ZM59.928,-137.877C44.448,-139.454,30.408,-157.593,30.408,-157.593C26.117,-162.062,26.35,-165.351,27.659,-167.527C28.958,-169.686,31.658,-170.783,34.451,-170.534C42.936,-169.78,66.666,-166.925,76.389,-158.026C88.333,-147.096,75.409,-136.301,59.928,-137.877ZM203.422,19.375C193.426,-3.625,181.25,-25.893,167.503,-47.439C155.269,-66.615,149.129,-85.197,211.99,-37.263C309.323,36.956,303.29,206.488,317.179,192.663C331.389,178.518,407.286,102.716,426.498,69.357C440.901,44.35,410.514,23.628,400.956,2.862C398.711,-2.013,395.389,-6.459,391.195,-10.197C371.237,-27.979,308.147,-84.09,276.174,-111.353C237.88,-144.007,292.424,-144.765,292.424,-144.765C292.424,-144.765,380.382,-137.167,388.708,-74.15C397.246,-9.533,413.687,-40.259,413.687,-40.259C416.163,-51.038,437.574,-18.151,472.562,-97.932C507.55,-177.715,413.328,-238.025,394.352,-251.615C375.375,-265.204,315.753,-308.703,315.753,-308.703C315.753,-308.703,246.635,-307.475,219.112,-234.681C191.588,-161.886,177.419,-178.625,177.419,-178.625C160.596,-213.852,189.506,-242.479,207.158,-273.223C224.811,-303.966,209.114,-335.08,197.467,-359.205C184.507,-386.052,186.59,-389.354,137.81,-389.245C105.096,-389.173,89.503,-413.365,84.456,-421.606C82.491,-424.814,80.085,-427.809,77.378,-430.558C11.103,-497.839,-51.839,-455.606,-51.839,-455.606C-27.893,-464.727,47.976,-391.14,47.976,-391.14C47.976,-391.14,105.551,-320.193,33.823,-350.52C-37.905,-380.848,-4.721,-436.723,-107.109,-443.363C-209.496,-450.002,-242.771,-346.052,-242.771,-346.052C-183.251,-372.726,-46.869,-293.363,-32.46,-283.638C-18.051,-273.914,-16.312,-262.566,-22.653,-258.549C-28.995,-254.532,-160.5,-308.531,-160.5,-308.531C-219.66,-285.997,-212.55,-323.935,-296.345,-300.025C-380.14,-276.115,-373.298,-173.032,-373.298,-173.032C-338.791,-184.574,-167.371,-210.634,-150.48,-210.662C-133.589,-210.69,-99.149,-186.977,-59.044,-181.435C-51.892,-180.447,-46.442,-179.117,-42.314,-177.598C-31.472,-173.605,-32.007,-159.486,-43.059,-157.746C-72.757,-153.074,-157.807,-142.472,-216.726,-163.011C-289.167,-188.263,-315.942,-171.659,-315.942,-171.659C-389.231,-121.326,-425.186,-182.031,-434.641,-112.836C-442.011,-58.901,-456.714,22.076,-456.714,22.076C-444.379,11.773,-332.04,-33.418,-315.125,-46.267C-298.209,-59.115,-190.804,-100.825,-105.691,-77.197C-45.668,-60.534,-86.279,-40.98,-115.438,-30.9C-126.606,-27.038,-138.578,-25.099,-150.815,-24.955C-173.681,-24.689,-227.559,-17.434,-319.142,31.328C-445.95,98.844,-492.661,44.19,-499.612,107.295C-507.549,179.351,-504.464,218.691,-504.464,218.691C-481.405,173.051,-390.604,178.352,-349.12,151.935C-344.309,148.006,-339.061,144,-333.354,139.962C-326.661,133.831,-320.703,126.682,-315.788,118.123C-293.336,79.02,-256.98,62.47,-233.484,55.602C-218.816,51.314,-202.89,50.407,-187.235,53.505C-169.159,57.082,-156.282,65.376,-216.139,84.172C-267.86,100.413,-305.933,120.563,-333.354,139.962C-338.252,144.45,-343.549,148.388,-349.12,151.935C-363.993,164.087,-374.714,175.524,-382.07,185.004C-403.235,212.281,-446.559,234.387,-476.871,260.345C-507.183,286.302,-481.945,330.317,-481.945,330.317C-424.611,240.463,-343.67,211.176,-303.979,195.947C-296.411,192.517,-289.085,189.982,-282.14,188.576C-282.14,188.576,-290.406,190.739,-303.979,195.947C-374.66,227.981,-480.544,338.776,-472.479,357.154C-462.206,380.57,-452.287,398.108,-452.287,398.108C-422.712,390.047,-390.408,484.293,-390.408,484.293C-390.408,484.293,-339.243,425.706,-341.683,413.023C-344.122,400.34,-333.854,366.805,-332.085,362.129C-309.283,301.82,-237.507,213.965,-237.507,213.965C-237.507,213.965,-195.18,165.862,-200.881,203.263C-206.582,240.664,-352.048,497.839,-352.048,497.839C-243.401,491.68,-219.02,490.405,-219.02,490.405C-219.02,490.405,-168.945,434.502,-114.542,322.505C-60.139,210.506,-90.915,110.136,-76.805,91.951C-62.695,73.766,-55.348,95.787,-55.348,95.787C-16.175,221.784,-162.913,438.778,-162.913,438.778C-86.892,423.646,-30.946,398.723,29.348,370.352C76.958,347.949,72.091,253.019,72.841,228.714C73.591,204.408,66.132,55.123,58.814,17.076C51.497,-20.971,80.339,-14.343,90.529,-6.214C100.718,1.915,117.066,102.176,117.066,102.176C117.066,102.176,96.053,322.512,111.828,321.635C139.409,320.104,221.194,279.547,219.801,279.664C219.801,279.664,282.351,260.145,268.952,160.312C258.373,81.486,229.075,78.397,203.422,19.375Z" /></g></g></g></g></g></g><g id="stalk"><g transform="translate(766.662,1499.12)"><g transform="rotate(13.769)"><g transform="scale(0.7,0.7) translate(-228.398,-658.264)"><g id="uncurl"><g transform="translate(70.595,66.975)"><g transform="rotate(99)"><g transform="scale(0.217,0.217)"><g transform="translate(-343,-396.5)"><g id="Group 1" transform="matrix(1,0,0,1,342.788,396.19)"><path fill="#d1fc54" fill-opacity="1" d="M-329.413,334.842C-337.099,347.446,-331.618,373.576,-329.889,377.034C-326.889,383.034,291.491,-181.167,291.491,-181.167C291.491,-181.167,275.477,-216.799,307.039,-250.585C342.539,-288.585,331.539,-345.085,307.196,-370.873C290.893,-388.144,247.437,-395.94,209.186,-370.873C170.935,-345.807,112.941,-272.938,112.941,-272.938L156.487,-201.371L92.19,-242.939C92.19,-242.939,47.859,-197.013,55.026,-183.978C62.193,-170.943,122.167,-137.455,122.167,-137.455L41.29,-161.707C41.29,-161.707,-54.666,-94.667,-28.728,-88.557C-2.79,-82.447,72.692,-73.448,72.692,-73.448C72.692,-73.448,16.307,-24.755,-61.995,-25.102C-140.297,-25.45,-155.285,47.179,-153.797,57.045C-152.31,66.912,-70.95,40.784,-66.361,52.664C-61.772,64.545,-144.903,66.045,-153.893,85.544C-162.882,105.043,-239.192,205.344,-212.294,192.039C-187.838,179.944,-146.368,167.47,-147.237,171.046C-147.237,171.046,-219.043,200.639,-233.195,219.173" /></g></g></g></g></g></g></g></g></g></g></svg>