<?xml version="1.0" encoding="utf-8"?><svg fill="none" viewBox="0 0 1080 1080" xmlns="http://www.w3.org/2000/svg"><defs /><g transform="matrix(1,0,0,1,544,540)" id="Master Control"><g opacity="0.3" id="Shadow Outlines"><g transform="translate(-39.5,460.5)"><g transform="scale(1,1) translate(-162.75,-21.75)"><g id="Group 1" transform="matrix(1,0,0,1,162.75,21.75)"><path fill="#e5e5e5" fill-opacity="1" d="M-162.5,0C-162.5,11.874,-89.746,21.5,0,21.5C89.746,21.5,162.5,11.874,162.5,0C162.5,-11.874,89.746,-21.5,0,-21.5C-89.746,-21.5,-162.5,-11.874,-162.5,0Z" /></g></g></g></g></g><g transform="matrix(1,0,0,1,544,540)" id="Master Control"><g id="motion"><g transform="translate(0,-616)"><g transform="rotate(3)"><g transform="scale(1,1) translate(0,616)"><g transform="matrix(1,0,0,1,-23.449,-609.307)" id="Layer 24 Outlines"><g id="Group 2" transform="matrix(1,0,0,1,15.959,407.605)"><path fill="#5b8402" fill-opacity="1" d="M10.958,-338.299L-10.958,338.299L10.958,-338.299Z" /></g><g id="Group 1" transform="matrix(1,0,0,1,17,375.453)"><path stroke-linejoin="miter" stroke-linecap="round" stroke-width="10" stroke-opacity="1" stroke="#d89d5b" d="M12,-370.452L-12,370.453" /></g></g></g></g></g></g></g><g transform="matrix(1,0,0,1,544,540)" id="Master Control"><g id="motion"><g transform="translate(0,-616)"><g transform="rotate(3)"><g transform="scale(1,1) translate(0,616)"><g transform="matrix(1,0,0,1,1.535,-609.306)" id="Layer 23 Outlines"><g id="Group 2" transform="matrix(1,0,0,1,19.691,392.038)"><path fill="#5b8402" fill-opacity="1" d="M-12.25,-322.731L12.25,322.732L-12.25,-322.731Z" /></g><g id="Group 1" transform="matrix(1,0,0,1,18.471,359.885)"><path stroke-linejoin="miter" stroke-linecap="round" stroke-width="10" stroke-opacity="1" stroke="#d89d5b" d="M-13.47,-354.884L13.47,354.885" /></g></g></g></g></g></g></g><g transform="matrix(1,0,0,1,544,540)" id="Master Control"><g id="motion"><g transform="translate(0,-616)"><g transform="rotate(3)"><g transform="scale(1,1) translate(0,616)"><g transform="matrix(1,0,0,1,-115.299,70.348)" id="Layer 22 Outlines"><g id="Group 1" transform="matrix(1,0,0,1,125.555,61.25)"><path fill="#c4c4c4" fill-opacity="1" d="M125.305,7.66C117.495,37.73,64.275,61,-0.205,61C-63.645,61,-116.185,38.48,-125.305,9.11C-117.335,-10.52,-109.775,-26.06,-106.075,-33.4L-106.065,-33.41C-104.645,-34.45,-103.145,-35.48,-101.595,-36.49C-78.525,-51.37,-41.695,-61,-0.205,-61C41.685,-61,78.815,-51.18,101.835,-36.06C103.745,-34.81,105.555,-33.52,107.265,-32.19L125.305,7.66Z" /></g></g></g></g></g></g></g><g transform="matrix(1,0,0,1,544,540)" id="Master Control"><g id="motion"><g transform="translate(0,-616)"><g transform="rotate(3)"><g transform="scale(1,1) translate(0,616)"><g id="leaf3 Outlines"><g transform="translate(24.582,170.639)"><g transform="rotate(0)"><g transform="scale(1,1) translate(-218.451,-571.341)"><g id="Group 2" transform="matrix(1,0,0,1,119.285,284.138)"><path fill="#466000" fill-opacity="1" d="M119.035,283.888C97.712,207.8,86.22,88.298,82.738,47.245C81.922,37.629,79.348,28.32,75.18,19.904L20.781,-89.957C15.979,-99.655,-21.287,-142.552,-23.976,-149.894C-30.807,-168.548,-102.986,-267.287,-109.781,-274.316C-119.035,-283.887,-99.686,-117.262,-71.926,-86.681C-44.165,-56.099,-26.498,-23.884,-9.674,-0.752C7.151,22.381,32.651,88.421,38.829,110.434C45.007,132.447,119.035,283.888,119.035,283.888Z" /></g><g id="Group 1" transform="matrix(1,0,0,1,119.285,284.138)"><path fill="#405103" fill-opacity="1" d="M119.035,283.888C97.712,207.8,86.22,88.298,82.738,47.245C81.922,37.629,79.348,28.32,75.18,19.904L20.781,-89.957C15.979,-99.655,-21.287,-142.552,-23.976,-149.894C-30.807,-168.548,-102.986,-267.287,-109.781,-274.316C-119.035,-283.887,-52.309,-158.756,-24.548,-128.175C3.213,-97.594,31.895,-41.955,48.719,-18.822C65.544,4.31,74.253,87.107,80.43,109.12C86.608,131.133,119.035,283.888,119.035,283.888Z" /></g></g></g></g></g></g></g></g></g></g><g transform="matrix(1,0,0,1,544,540)" id="Master Control"><g id="motion"><g transform="translate(0,-616)"><g transform="rotate(3)"><g transform="scale(1,1) translate(0,616)"><g id="leaf1 Outlines"><g transform="translate(18.185,150.544)"><g transform="rotate(0)"><g transform="scale(1,1) translate(-428.081,-168.19)"><g id="Group 2" transform="matrix(1,0,0,1,212.361,80.781)"><path fill="#4a6404" fill-opacity="1" d="M212.111,80.53C212.111,80.53,164.395,-7.02,134.428,-17.624C104.462,-28.228,-45.551,-80.53,-79.767,-67.73C-113.984,-54.93,-212.111,-8.446,-181.055,-7.754C-149.998,-7.061,9.853,18.101,41.871,21.331C73.889,24.56,212.111,80.53,212.111,80.53Z" /></g><g id="Group 1" transform="matrix(1,0,0,1,212.361,110.737)"><path fill="#405103" fill-opacity="1" d="M212.111,50.574C212.111,50.574,137.513,6.624,107.547,-3.98C77.58,-14.584,-80.395,-50.575,-120.199,-50.295C-156.73,-50.038,-212.111,-38.402,-181.055,-37.71C-149.998,-37.017,9.853,-11.855,41.871,-8.625C73.889,-5.396,212.111,50.574,212.111,50.574Z" /></g></g></g></g></g></g></g></g></g></g><g transform="matrix(1,0,0,1,544,540)" id="Master Control"><g id="motion"><g transform="translate(0,-616)"><g transform="rotate(3)"><g transform="scale(1,1) translate(0,616)"><g id="leaf5 Outlines"><g transform="translate(14.604,156.298)"><g transform="rotate(0)"><g transform="scale(1,1) translate(-7.915,-378.324)"><g id="Group 2" transform="matrix(1,0,0,1,202.006,183.9)"><path fill="#587506" fill-opacity="1" d="M-195.75,183.165C-195.75,183.165,-133.957,97.387,-71.626,64.582C-9.295,31.776,6.014,-19.621,91.309,-53.52C176.604,-87.419,201.755,-146.469,201.755,-165.059C201.755,-183.649,128.489,-160.686,72.719,-127.88C16.95,-95.074,-24.604,-48.052,-54.13,-17.434C-83.655,13.185,-149.972,56.926,-175.864,88.638C-201.756,120.351,-195.212,183.649,-195.75,183.165Z" /></g><g id="Group 1" transform="matrix(1,0,0,1,207.809,182.58)"><path fill="#405103" fill-opacity="1" d="M-195.503,181.66C-195.503,181.66,-133.709,95.881,-71.378,63.076C-9.047,30.27,6.261,-21.125,91.556,-55.024C176.851,-88.923,195.502,-144.964,195.502,-163.554C195.502,-182.144,158.772,-116.719,103.002,-83.913C47.232,-51.107,-7.955,-15.658,-37.48,14.961C-67.005,45.579,-133.322,89.321,-159.214,121.034C-185.106,152.746,-194.965,182.143,-195.503,181.66Z" /></g></g></g></g></g></g></g></g></g></g><g transform="matrix(1,0,0,1,544,540)" id="Master Control"><g id="motion"><g transform="translate(0,-616)"><g transform="rotate(3)"><g transform="scale(1,1) translate(0,616)"><g id="leaf4 Outlines"><g transform="translate(3.467,136.598)"><g transform="rotate(0)"><g transform="scale(1,1) translate(8.69,-508.121)"><g id="Group 2" transform="matrix(1,0,0,1,107.416,258.322)"><path fill="#4c6409" fill-opacity="1" d="M107.165,-258.072C29.525,-220.892,3.281,-129.036,-26.244,-76.547C-55.769,-24.057,-82.014,-24.057,-82.014,34.993C-82.014,94.043,-107.165,162.346,-107.165,210.209L-107.165,258.072C-107.165,258.072,-40.46,121.381,-29.525,65.612C-18.589,9.842,0,-19.683,18.59,-56.863C37.18,-94.043,107.165,-258.072,107.165,-258.072Z" /></g><g id="Group 1" transform="matrix(1,0,0,1,107.416,258.322)"><path fill="#405103" fill-opacity="1" d="M107.165,-258.072C42.647,-172.777,43.741,-125.755,14.215,-73.266C-15.31,-20.777,-48.116,14.216,-48.116,73.266C-48.116,132.317,-107.165,162.346,-107.165,210.209L-107.165,258.072C-107.165,258.072,-40.46,121.381,-29.525,65.612C-18.589,9.842,0,-19.683,18.59,-56.863C37.18,-94.043,107.165,-258.072,107.165,-258.072Z" /></g></g></g></g></g></g></g></g></g></g><g transform="matrix(1,0,0,1,544,540)" id="Master Control"><g id="motion"><g transform="translate(0,-616)"><g transform="rotate(3)"><g transform="scale(1,1) translate(0,616)"><g transform="matrix(0.999,0.052,-0.052,0.999,-34.233,6.946)" id="Null 9"><g id="leaf2 Outlines"><g transform="translate(62.437,157.505)"><g transform="rotate(-3)"><g transform="scale(1,1) translate(-518.641,-403.309)"><g id="Group 2" transform="matrix(1,0,0,1,259.445,201.96)"><path fill="#5b770c" fill-opacity="1" d="M259.195,201.711C259.195,201.711,255.689,87.726,211.849,44.763C168.009,1.8,90.368,-15.173,29.233,-39.566C-31.902,-63.959,-81.003,-122.706,-146.763,-150.763C-212.523,-178.821,-259.196,-201.71,-232.892,-177.742C-206.588,-153.775,-185.05,-86.626,-111.509,-58.549C-37.968,-30.472,-9.613,-12.229,32.289,12.321C74.191,36.872,150.473,43.887,175.9,63.177C201.327,82.466,259.195,201.711,259.195,201.711Z" /></g><g id="Group 1" transform="matrix(1,0,0,1,268.771,209.57)"><path fill="#405103" fill-opacity="1" d="M249.87,194.101C249.87,194.101,223.724,98.186,179.884,55.223C136.044,12.26,94.589,11.482,31.165,-7.108C-11.291,-19.552,-149.178,-101.349,-165.67,-113.18C-223.763,-154.855,-249.871,-194.101,-249.871,-194.101C-249.871,-194.101,-194.376,-94.235,-120.835,-66.158C-47.294,-38.081,-18.938,-19.838,22.964,4.712C64.866,29.263,141.147,36.277,166.574,55.567C192.001,74.856,249.87,194.101,249.87,194.101Z" /></g></g></g></g></g></g></g></g></g></g></g><g transform="matrix(1,0,0,1,544,540)" id="Master Control"><g id="motion"><g transform="translate(0,-616)"><g transform="rotate(3)"><g transform="scale(1,1) translate(0,616)"><g transform="matrix(0.669,-0.743,0.743,0.669,-45.756,53.365)" id="Null 8"><g transform="matrix(0.999,0.052,-0.052,0.999,-14.711,75.382)" id="leaf6 Outlines"><g id="Group 2" transform="matrix(1,0,0,1,162.764,81.718)"><path fill="#496202" fill-opacity="1" d="M-162.389,-22.418C-162.389,-22.418,-57.552,-20.403,-19.136,-6.015C19.28,8.373,112.842,26.687,119.742,31.165C126.641,35.643,158.015,69.438,161.296,81.467C162.389,61.784,148.172,38.819,133.166,25.834C88.879,-12.489,29.352,-56.241,-24.605,-67.253C-78.188,-78.188,-91.309,-81.468,-128.97,-67.253C-145.395,-61.053,-162.389,-22.418,-162.389,-22.418Z" /></g><g id="Group 1" transform="matrix(1,0,0,1,162.639,105.775)"><path fill="#405103" fill-opacity="1" d="M-162.389,-46.475C-162.389,-46.475,-57.552,-44.459,-19.136,-30.071C19.28,-15.683,112.842,2.631,119.742,7.109C126.641,11.586,158.015,45.382,161.296,57.411C162.389,37.727,128.971,11.637,113.307,-0.546C93.623,-15.856,19.637,-35.464,-34.319,-46.475C-87.902,-57.411,-87.903,-57.41,-125.083,-55.223C-142.609,-54.192,-162.389,-46.475,-162.389,-46.475Z" /></g></g></g></g></g></g></g></g><g transform="matrix(1,0,0,1,544,540)" id="Master Control"><g id="motion"><g transform="translate(0,-616)"><g transform="rotate(3)"><g transform="scale(1,1) translate(0,616)"><g transform="matrix(1,0,0,1,-142.699,94.858)" id="Pot Outlines"><g id="Group 2" transform="matrix(1,0,0,1,153.25,121.495)"><path fill="#efefef" fill-opacity="1" d="M153,36.245C153,103.245,52,121.245,0,121.245C-52,121.245,-153,103.245,-153,36.245C-153,0.095,-138.74,-43.325,-125.6,-75.645C-117.63,-95.275,-110.07,-110.815,-106.37,-118.155L-106.36,-118.165C-104.94,-119.205,-103.44,-120.235,-101.89,-121.245C-86.57,-110.615,9.59,-49.515,101.54,-120.815C103.45,-119.565,105.26,-118.275,106.97,-116.945C110.75,-109.395,117.67,-95.035,125.01,-77.095C138.31,-44.635,153,-0.445,153,36.245Z" /></g><g id="Group 1" transform="matrix(1,0,0,1,199.918,121.71)"><path fill="#e5e5e5" fill-opacity="1" d="M78.342,-77.31C71.002,-95.25,64.082,-109.61,60.302,-117.16C58.592,-118.49,56.782,-119.78,54.872,-121.03C48.333,-115.959,41.773,-111.58,35.222,-107.783C38.519,-100.68,42.366,-92.027,46.342,-82.31C59.642,-49.85,74.332,-5.66,74.332,31.03C74.332,98.03,-26.668,116.03,-78.668,116.03C-86.867,116.03,-96.285,115.581,-106.332,114.565C-84.705,119.204,-63.208,121.03,-46.668,121.03C5.332,121.03,106.332,103.03,106.332,36.03C106.332,-0.66,91.642,-44.85,78.342,-77.31Z" /></g></g></g></g></g></g></g><g transform="matrix(1,0,0,1,544,540)" id="Master Control"><g id="motion"><g transform="translate(0,-616)"><g transform="rotate(3)"><g transform="scale(1,1) translate(0,616)"><g transform="matrix(1,0,0,1,-112.449,-629.306)" id="Layer 13 Outlines"><g id="Group 1" transform="matrix(1,0,0,1,123,496.398)"><path stroke-linejoin="round" stroke-linecap="round" stroke-width="10" stroke-opacity="1" stroke="#d89d5b" d="M21.395,-471.398L85.607,238.371L-98,452.299C-98,452.299,-58.276,471.398,0.001,471.317C28.954,471.277,62.485,466.502,98,452.299L-87,238.371L-26.84,-471.398" /></g></g></g></g></g></g></g><g transform="matrix(1,0,0,1,544,540)" id="Master Control"><g id="motion"><g transform="translate(0,-616)"><g transform="rotate(3)"><g transform="scale(1,1) translate(0,616)"><g transform="matrix(1,0,0,1,5.709,333.408)" id="Layer 12 Outlines"><g id="Group 1"><path stroke-linejoin="round" stroke-linecap="round" stroke-width="10" stroke-opacity="1" stroke="#d89d5b" d="M5,36.19L5,5" /></g></g></g></g></g></g></g><g transform="matrix(1,0,0,1,544,540)" id="Master Control"><g id="motion"><g transform="translate(0,-616)"><g transform="rotate(3)"><g transform="scale(1,1) translate(0,616)"><g transform="matrix(1,0,0,1,70.551,80.598)" id="Layer 5 Outlines"><g id="Group 1" transform="matrix(1,0,0,1,84.448,131.896)"><path stroke-linejoin="round" stroke-linecap="round" stroke-width="10" stroke-opacity="1" stroke="#d89d5b" d="M-59.448,-106.896C-59.448,-106.896,59.448,1,-46.448,106.896" /></g></g></g></g></g></g></g><g transform="matrix(1,0,0,1,544,540)" id="Master Control"><g id="motion"><g transform="translate(0,-616)"><g transform="rotate(3)"><g transform="scale(1,1) translate(0,616)"><g transform="matrix(1,0,0,1,-217.845,79.598)" id="Layer 4 Outlines"><g id="Group 1" transform="matrix(1,0,0,1,82.198,132.396)"><path stroke-linejoin="round" stroke-linecap="round" stroke-width="10" stroke-opacity="1" stroke="#d89d5b" d="M57.198,-107.396C57.198,-107.396,-57.198,2,48.198,107.396" /></g></g></g></g></g></g></g><g transform="matrix(1,0,0,1,544,540)" id="Master Control"><g id="motion"><g transform="translate(0,-616)"><g transform="rotate(3)"><g transform="scale(1,1) translate(0,616)"><g transform="matrix(1,0,0,1,-2.699,192.348)" id="Layer 11 Outlines"><g id="Group 1" transform="matrix(1,0,0,1,13.25,13.25)"><path fill="#ead300" fill-opacity="1" d="M13,0C13,-7.18,7.18,-13,0,-13C-7.18,-13,-13,-7.18,-13,0C-13,7.18,-7.18,13,0,13C7.18,13,13,7.18,13,0Z" /></g></g></g></g></g></g></g><g transform="matrix(1,0,0,1,544,540)" id="Master Control"><g id="motion"><g transform="translate(0,-616)"><g transform="rotate(3)"><g transform="scale(1,1) translate(0,616)"><g transform="matrix(1,0,0,1,136.301,204.348)" id="Layer 10 Outlines"><g id="Group 1" transform="matrix(1,0,0,1,13.25,13.25)"><path fill="#ead300" fill-opacity="1" d="M13,0C13,-7.18,7.18,-13,0,-13C-7.18,-13,-13,-7.18,-13,0C-13,7.18,-7.18,13,0,13C7.18,13,13,7.18,13,0Z" /></g></g></g></g></g></g></g><g transform="matrix(1,0,0,1,544,540)" id="Master Control"><g id="motion"><g transform="translate(0,-616)"><g transform="rotate(3)"><g transform="scale(1,1) translate(0,616)"><g transform="matrix(1,0,0,1,-145.699,192.348)" id="Layer 9 Outlines"><g id="Group 1" transform="matrix(1,0,0,1,13.25,13.25)"><path fill="#ead300" fill-opacity="1" d="M13,0C13,-7.18,7.18,-13,0,-13C-7.18,-13,-13,-7.18,-13,0C-13,7.18,-7.18,13,0,13C7.18,13,13,7.18,13,0Z" /></g></g></g></g></g></g></g><g transform="matrix(1,0,0,1,544,540)" id="Master Control"><g id="motion"><g transform="translate(0,-616)"><g transform="rotate(3)"><g transform="scale(1,1) translate(0,616)"><g transform="matrix(1,0,0,1,82.301,92.348)" id="Layer 8 Outlines"><g id="Group 1" transform="matrix(1,0,0,1,13.25,13.25)"><path fill="#ead300" fill-opacity="1" d="M13,0C13,-7.18,7.18,-13,0,-13C-7.18,-13,-13,-7.18,-13,0C-13,7.18,-7.18,13,0,13C7.18,13,13,7.18,13,0Z" /></g></g></g></g></g></g></g><g transform="matrix(1,0,0,1,544,540)" id="Master Control"><g id="motion"><g transform="translate(0,-616)"><g transform="rotate(3)"><g transform="scale(1,1) translate(0,616)"><g transform="matrix(1,0,0,1,-91.699,91.348)" id="Layer 7 Outlines"><g id="Group 1" transform="matrix(1,0,0,1,13.25,13.25)"><path fill="#ead300" fill-opacity="1" d="M13,0C13,-7.18,7.18,-13,0,-13C-7.18,-13,-13,-7.18,-13,0C-13,7.18,-7.18,13,0,13C7.18,13,13,7.18,13,0Z" /></g></g></g></g></g></g></g><g transform="matrix(1,0,0,1,544,540)" id="Master Control"><g id="motion"><g transform="translate(0,-616)"><g transform="rotate(3)"><g transform="scale(1,1) translate(0,616)"><g transform="matrix(1,0,0,1,0.301,328.348)" id="Layer 6 Outlines"><g id="Group 1" transform="matrix(1,0,0,1,10.25,10.25)"><path fill="#ead300" fill-opacity="1" d="M10,0C10,-5.523,5.523,-10,0,-10C-5.523,-10,-10,-5.523,-10,0C-10,5.523,-5.523,10,0,10C5.523,10,10,5.523,10,0Z" /></g></g></g></g></g></g></g><g transform="matrix(1,0,0,1,544,540)" id="Master Control"><g id="motion"><g transform="translate(0,-616)"><g transform="rotate(3)"><g transform="scale(1,1) translate(0,616)"><g transform="matrix(0.669,-0.743,0.743,0.669,-45.756,53.365)" opacity="0" id="Null 8" /></g></g></g></g></g><g transform="matrix(1,0,0,1,544,540)" id="Master Control"><g id="motion"><g transform="translate(0,-616)"><g transform="rotate(3)"><g transform="scale(1,1) translate(0,616)"><g transform="matrix(0.999,0.052,-0.052,0.999,-34.233,6.946)" opacity="0" id="Null 9" /></g></g></g></g></g><g transform="matrix(1,0,0,1,544,540)" id="Master Control"><g opacity="0" id="motion"><g transform="translate(0,-616)"><g transform="rotate(3)"><g transform="scale(1,1) translate(0,616)" /></g></g></g></g><g transform="matrix(1,0,0,1,544,540)" opacity="0" id="Master Control" /></svg>